<svg xmlns="http://www.w3.org/2000/svg" viewBox="0 0 256 256" width="256" height="256" role="img" aria-label="quantick">
  <defs>
    <linearGradient id="sg" x1="0" y1="0" x2="0" y2="1">
      <stop offset="0" stop-color="#17242F"/>
      <stop offset="1" stop-color="#0B131C"/>
    </linearGradient>
    <linearGradient id="tg" x1="0" y1="0" x2="0" y2="1">
      <stop offset="0" stop-color="#3AF0B2"/>
      <stop offset="1" stop-color="#12C68C"/>
    </linearGradient>
  </defs>
  <rect x="6" y="6" width="244" height="244" rx="42" fill="url(#sg)"/>
  <!-- Q: teal (active) side -->
    <rect x="108" y="41" width="47" height="14" rx="3" fill="url(#tg)"/>
    <rect x="108" y="60" width="47" height="13" rx="3" fill="url(#tg)"/>
    <rect x="160" y="60" width="28" height="14" rx="3" fill="url(#tg)"/>
    <rect x="160" y="79" width="43" height="14" rx="3" fill="url(#tg)"/>
    <rect x="160" y="98" width="43" height="14" rx="3" fill="url(#tg)"/>
    <rect x="160" y="117" width="43" height="13" rx="3" fill="url(#tg)"/>
    <rect x="160" y="136" width="43" height="13" rx="3" fill="url(#tg)"/>
    <rect x="160" y="154" width="27" height="14" rx="3" fill="url(#tg)"/>
    <rect x="108" y="173" width="47" height="14" rx="3" fill="url(#tg)"/>
    <rect x="160" y="173" width="28" height="14" rx="3" fill="url(#tg)"/>
    <rect x="108" y="192" width="47" height="14" rx="3" fill="url(#tg)"/>
    <rect x="160" y="192" width="28" height="14" rx="3" fill="url(#tg)"/>
    <rect x="178" y="211" width="28" height="14" rx="3" fill="url(#tg)"/>
  <!-- Q: left (faded) side — light, semi-transparent so it stays legible on dark -->
    <rect x="87" y="41" width="17" height="14" rx="3" fill="#E6EEF6" fill-opacity="0.647"/>
    <rect x="70" y="60" width="34" height="14" rx="3" fill="#E6EEF6" fill-opacity="0.647"/>
    <rect x="55" y="79" width="49" height="14" rx="3" fill="#E6EEF6" fill-opacity="0.647"/>
    <rect x="70" y="98" width="30" height="14" rx="3" fill="#E6EEF6" fill-opacity="0.647"/>
    <rect x="53" y="116" width="51" height="14" rx="3" fill="#E6EEF6" fill-opacity="0.647"/>
    <rect x="69" y="135" width="32" height="14" rx="3" fill="#E6EEF6" fill-opacity="0.647"/>
    <rect x="53" y="154" width="51" height="14" rx="3" fill="#E6EEF6" fill-opacity="0.647"/>
    <rect x="73" y="172" width="29" height="14" rx="3" fill="#E6EEF6" fill-opacity="0.647"/>
</svg>
